<svg width="19" height="24" viewBox="0 0 19 24" fill="none" xmlns="http://www.w3.org/2000/svg">
<path fill-rule="evenodd" clip-rule="evenodd" d="M9.64958 23.5846C8.83677 23.5846 8.03829 23.3579 7.3344 22.9275C7.03299 22.7605 6.84228 22.4319 6.83767 22.0716C6.83307 21.7114 7.01531 21.3774 7.31235 21.2018C7.60939 21.0263 7.9734 21.0373 8.26047 21.2306C9.03369 21.6997 9.97247 21.7476 10.7846 21.3592C11.5968 20.9709 12.1838 20.1934 12.363 19.2689C12.5338 18.3329 13.3152 17.6625 14.2151 17.6799H16.8359L16.1969 14.9727C16.188 14.8945 16.188 14.8155 16.1969 14.7373V9.11698C16.259 5.42982 13.618 2.31985 10.1497 1.99595C8.35631 1.86812 6.59334 2.53467 5.28179 3.83641C3.97024 5.13815 3.22785 6.95822 3.23191 8.86196V14.7471C3.24083 14.8253 3.24083 14.9043 3.23191 14.9825L2.59292 17.6897H9.74219C10.2536 17.6897 10.6683 18.1288 10.6683 18.6705C10.6683 19.2122 10.2536 19.6514 9.74219 19.6514H2.59292C2.02368 19.6509 1.48626 19.3732 1.13553 18.8984C0.784798 18.4235 0.65972 17.8042 0.796337 17.2189L1.40754 14.6294V8.87177C1.4024 6.42488 2.35637 4.0855 4.04176 2.41197C5.72715 0.738445 7.99275 -0.119088 10.2978 0.0440442C14.7381 0.43518 18.1359 4.39817 18.0768 9.11698V14.6098L18.688 17.1992C18.8247 17.7845 18.6996 18.4039 18.3488 18.8787C17.9981 19.3536 17.4607 19.6313 16.8915 19.6318H14.2707C13.8363 21.9601 11.8901 23.6249 9.64958 23.5846Z" fill="#F2EBEF" fill-opacity="0.5"/>
</svg>
