<svg width="16" height="13" viewBox="0 0 16 13" fill="none" xmlns="http://www.w3.org/2000/svg">
<path opacity="0.5" fill-rule="evenodd" clip-rule="evenodd" d="M11.9478 12.9999H2.03656C0.911799 12.9999 0 12.0809 0 10.9473V2.05262C0 0.918988 0.911799 0 2.03656 0H6.22508C6.76503 0.000479086 7.28269 0.217051 7.66425 0.602101L8.2277 1.16999C8.35581 1.29807 8.52924 1.36946 8.70969 1.36841H12.2194C12.5943 1.36841 12.8982 1.67474 12.8982 2.05262C12.8982 2.43049 12.5943 2.73682 12.2194 2.73682H8.70969C8.16974 2.73634 7.65208 2.51977 7.27052 2.13472L6.70707 1.56683C6.57896 1.43876 6.40552 1.36736 6.22508 1.36841H2.03656C1.66164 1.36841 1.35771 1.67474 1.35771 2.05262V10.9473C1.35771 11.3252 1.66164 11.6315 2.03656 11.6315H11.9478C12.2336 11.6314 12.4888 11.4508 12.5859 11.1799L14.6225 5.47364H5.9196L4.71803 9.11362C4.59993 9.4726 4.21545 9.66712 3.85928 9.54809C3.50311 9.42906 3.31011 9.04155 3.42821 8.68257L4.62978 5.04259C4.81421 4.48252 5.3341 4.1047 5.9196 4.10523H14.6429C15.0852 4.10542 15.4997 4.3228 15.7538 4.68779C16.0078 5.05278 16.0695 5.51962 15.9191 5.9389L13.8825 11.6452C13.5885 12.465 12.8127 13.0082 11.9478 12.9999Z" fill="#F2EBEF"/>
</svg>
