<svg id="Capa_1" data-name="Capa 1" xmlns="http://www.w3.org/2000/svg" xmlns:xlink="http://www.w3.org/1999/xlink" viewBox="0 0 792 612"><defs><style>.cls-1{fill:#e82f85;}.cls-1,.cls-2,.cls-3,.cls-4{stroke:#f3ebef;stroke-miterlimit:10;stroke-width:4px;}.cls-2{fill:url(#Degradado_sin_nombre_18);}.cls-3{fill:url(#Degradado_sin_nombre_18-2);}.cls-4{fill:#5d378d;}.cls-5{fill:#f3ebef;}</style><linearGradient id="Degradado_sin_nombre_18" x1="218.97" y1="280.37" x2="381.57" y2="374.25" gradientUnits="userSpaceOnUse"><stop offset="0" stop-color="#e82d84"/><stop offset="1" stop-color="#5d378d"/></linearGradient><linearGradient id="Degradado_sin_nombre_18-2" x1="275.01" y1="279.4" x2="291.58" y2="288.96" xlink:href="#Degradado_sin_nombre_18"/></defs><title>logo</title><path class="cls-1" d="M270.31,339.88l-3.71,1.18c-3.52,1.13-15.21,5.25-18.05,2.88-15.31-12.81-56.17-61.12-69.13-105.86-5.08-17.56-11.46-22.92-17.08-24a9.55,9.55,0,0,0-9.64,4.1l-7.1,10.37-1.91,4.07a14.94,14.94,0,0,0,1.18,14.72l7,10.25c2.57,7.35-3,8.31-6,12a11.93,11.93,0,0,0-2,11.75c5.38,14.31,14.77,52-12.95,95.34-5.69,8.89-1.13,12.67,4.13,14.27a11.65,11.65,0,0,0,13-4.68L176.48,344l12.07-5.34a10.19,10.19,0,0,1,12,2.82l15.18,18.33a39.93,39.93,0,0,0,25.68,14.12h0a16.43,16.43,0,0,0,9.16-1.47c8.56-4.1,26.38-13.94,28.88-25.89h0A7,7,0,0,0,270.31,339.88Zm-79.86-21.66c-2,3.31-9.9,5.56-14.53,6.63a2.84,2.84,0,0,1-3.48-2.77V293.83a1.33,1.33,0,0,1,2.34-.88C180.17,299.18,192.77,314.44,190.45,318.22Z"/><path class="cls-2" d="M394.1,319.74C389.6,312,382.69,303,374.9,303c-13.69,0-82.67,7-91.43,2.34s-32.29-10.13-36.67-30.4,14.78-15.59,14.78-15.59,38.11-20,69.52,2.34l14.69,14.12c4.44,4.27,10.24,4.43,14.78.38,7.38-6.6,18-16.69,21.44-23.08,5.48-10.13-50.36-78-124.27-21s-13.13,104.45-13.13,104.45l-4.27,23.68a28.65,28.65,0,0,0,.71,13.1l1.13,3.74a25.51,25.51,0,0,1,.42,12.73l-1.29,5.69a33.83,33.83,0,0,0,1.6,20.25c8.85,20.86,34.37,61.32,87.64,14.36,43.87-38.67,59.84-68.34,65.65-84.82C399.14,336.92,398.28,326.93,394.1,319.74Zm-33.44,46.4c-9.3,14.82-10.35,27.29-46.51,35.86s-49.84-27.28-49.84-27.28-4.86-15.59,0-28.06c0,0,37.78.78,48.73-4.68s43.79,4.71,43.79,4.71S370,351.33,360.66,366.14Z"/><path class="cls-3" d="M279.18,299.72,299.5,275.2c1.19-1.44.16-4.15-1.36-3.57l-9.91,3.79a17.42,17.42,0,0,0-5.88,3.86L265.66,295.6Z"/><path class="cls-4" d="M446.21,324.05a16.16,16.16,0,0,0-9-3.27c-10.3-.49-31.06,2.69-44.35,29.27-19.29,38.59-2,24.5,3.8,19.25-6.79,7.73-9.28,28.3-7.11,41,5.36,31.5,33.94,44.06,38.95,46a8.44,8.44,0,0,0,1.38.42l7.11,3.69a14.64,14.64,0,0,0,12.86.34c9.74-4.49,26.71-16.95,36.75-50.85C499.06,368,458.89,333.64,446.21,324.05Zm13.21,88.49c-15.07,15.07-8.83,4.78-24.26,3.68C417.37,415,419.76,393.8,422,383.49a16.31,16.31,0,0,1,5.22-8.84l1.4-1.22a11.25,11.25,0,0,1,14.1-.61C454.34,381.42,473.37,398.58,459.42,412.54Z"/><path class="cls-4" d="M492.89,346.61c.94-4.37,2.54-5.45,5.94-8l12.55-9.46s9.88-8.23,13.58-3.19,8.92,2.69,6.82,14.07a114.09,114.09,0,0,0-1.4,23.23c0,.3,0,.59,0,.9l-.28,17a17.87,17.87,0,0,0,1.15,6.27c2.11,5.93-.39,20.35,2.32,18.57,3.1-2,20.27-20.23,18.92-33.88s-6.78-58.84-6.78-58.84l.61-5.27a22,22,0,0,1,10.11-16.25l11.76-7.12a21.65,21.65,0,0,1,11.74-3.22h0c3.08.08,5.46,2.77,5.49,6.2l.13,19.3,3.58,70.56.38,24.89c.11,7.2,4.38,13.22,10.59,14.92h0s-1.41,8.12-3.58,9.37c-3.61,2.08-8.65,6.11-14.68,10.94-3.41,2.73-7.78,4.76-11.68,3.71-4.49-1.22-11.67-3.62-11.67-3.62-4.23-14.38-2.58-13.92-7.27-10.76l-8.25,3.5-5.3,5.45S525,452.24,512.9,440.71s-14.6-19.11-14.6-19.11-6.09-14.89-6.5-35.71C491.65,377.78,491.31,353.94,492.89,346.61Z"/><path class="cls-1" d="M399,211.36A14.86,14.86,0,0,1,394.46,186c8.49-7.31-.13-7.76,3.3-9.19,8.82-3.68,29.41,3.68,29.41,3.68s38.23,18.38,78.67,17.64c31.28-.57,47.17-13.63,52.75-19.52a9.21,9.21,0,0,1,6.67-2.83h0a1.52,1.52,0,0,1,1.39,2.13l-5.53,12.41c-.1.22-.2.43-.32.65-1.42,2.64-11.24,20-24.82,24.07,0,0-28.62,8.16-59,10.17a13.19,13.19,0,0,1-3.91-.33l-15.66-3.65a3.3,3.3,0,0,0-4,3.53L455.11,243l31.25-15.07a5,5,0,0,1,3.93.47,6.05,6.05,0,0,1,2.13,8.16l-.5.91a25.88,25.88,0,0,1-8.4,9.21c-5.18,3.45-13,8.43-18.53,11a7.45,7.45,0,0,0-4,8.66l5.89,4.64A150.84,150.84,0,0,0,497,255.48a161.89,161.89,0,0,1,19.2-11.11,2.55,2.55,0,0,1,3.38,3.44L511,265s-21.32,27.2-28.67,28.67-20.58,14.7-27.94,10.29c-6.86-4.12-17.57-6.95-19-15.09a15.91,15.91,0,0,0-1.1-3.82c-2.74-6.13-10.43-25.68-8.61-48.73,2.21-27.94-3.68-16.91-3.68-16.91Z"/><path class="cls-1" d="M453.8,183.43a6,6,0,0,0-6.79-9.29,78.53,78.53,0,0,1-33.24,4.61c-32.57-2.24-82.65-5.22-100.45-18-7.57-5.44-14.43,8-15.53,13.27-2.05,9.81.64,18.61,10.25,21.43l54.57,7a14.89,14.89,0,0,1,12.27,10.17L397,280.82s6.56,20.93.26,36.83c-3.42,8.61-.75,11.19,2.41,11.75a8.19,8.19,0,0,0,7.82-3.25l12.52-16.32q.27-.34.57-.66c1.8-1.9,11.38-12.5,10.75-21.81-.57-8.45-13.21-55.55-17.67-71.94a6,6,0,0,1,3.86-7.2C425.82,205.41,441.91,198.36,453.8,183.43Z"/><path class="cls-1" d="M625.58,230.55c-3.44.25-8,2.66-10.48,5.08a8.22,8.22,0,0,1-6.66,2.19l-37.48-4c-18.14-3.63-.69-14.83,5.9-16.73a9.94,9.94,0,0,0,7-11.31c-.75-4-2.78-9.09-7.51-14.61-11.76-13.72-75-35.29-75-35.29l-11.93-5a13.7,13.7,0,0,0-16.1,4.21L472,156.86a14.28,14.28,0,0,0,1.33,19l14.32,13.85c.68.56,1.78-.54,2.78-1.67a6,6,0,0,1,3.85-2l6.61-.74-10.13,8a5.56,5.56,0,0,0-1.52,6.9l24,47.25a19.16,19.16,0,0,1,1.59,4.28c2.57,10.53,13.14,54.77,10.55,59.09-2.94,4.9,17.89-12.75,20.84-23.53,1.1-4,1.25-8.66,2.44-9.83,2.06-2,4.17-5.58,4.17-8.48v-15.7s15.69,17,33.33,14.75h24.42a8.36,8.36,0,0,0,5.36-1.95l14.76-12.34a6.43,6.43,0,0,0,1-1.1C634.66,248.78,648.67,228.87,625.58,230.55Zm-86,.36c-3.92,1.48-14.71-34.31-14.71-34.31s32.35,9.81,31.86,17.18S543.51,229.44,539.59,230.91Z"/><path class="cls-4" d="M784.71,322.48a104.87,104.87,0,0,0-4.9-14.62,23.86,23.86,0,0,0-8.9-10.73l-9.6-6.32a23.36,23.36,0,0,0-10.61-3.75c-14.1-1.41-33.24,1.48-48.39,4-14.53,2.42-49.69,27.13-61.63,35.77a9.77,9.77,0,0,0-4,7.93v.14a4.35,4.35,0,0,0,5.37,4.24c11.66-2.85,33.62-19.7,45-27a1,1,0,0,1,1.31,1.53l-7.58,8.79s25.48,73,22.54,75-27,14.71-27,14.71a3,3,0,0,0,2.36,4.9H688s52.08-18.14,64.83-29.41a118.15,118.15,0,0,0,27-35.76C783.14,344.74,786.56,331.11,784.71,322.48Zm-58,54.4c-1.36,0-15.79-61.48-15.79-61.48C789.45,314.1,728.08,376.9,726.72,376.88Z"/><path class="cls-4" d="M582,345s5.88-18.13,11.27-21.07a9.79,9.79,0,0,1,9.81,0l65.68,57.34-19.12-45.58c-1.47-.49-9.8-33.33-9.8-38.72s2.94-29.41,11.76-40.19,25-23,25-23l-8.72,25.68a12.09,12.09,0,0,1-1.34,2.81,25.2,25.2,0,0,0-3.18,19.54C666.3,294.05,705,413.15,705,413.15L708,421s-9.81,21.08-15.69,21.08c-5.19,0-59.21-50.36-71.86-62.22a1.48,1.48,0,0,0-2.49,1.15l.83,20.88-15.68,15.68-2.94-19.75S590.81,348.45,582,345Z"/><path class="cls-5" d="M611.58,269.91v29.81a1.25,1.25,0,0,0,2.5,0V269.91a1.25,1.25,0,0,0-2.5,0Z"/><path class="cls-5" d="M691,442.39v9.46a1.25,1.25,0,0,0,2.5,0v-9.46a1.25,1.25,0,0,0-2.5,0Z"/><path class="cls-5" d="M620.3,262.09V281a.63.63,0,0,0,1.25,0V262.09a.63.63,0,0,0-1.25,0Z"/><path class="cls-5" d="M458.55,303.66v11.72a.63.63,0,0,0,1.25,0V303.66a.63.63,0,0,0-1.25,0Z"/><path class="cls-5" d="M485,293.2v31.73a.63.63,0,0,0,1.25,0V293.2a.63.63,0,0,0-1.25,0Z"/><path class="cls-5" d="M604.94,417.34v31.73a.63.63,0,0,0,1.25,0V417.34a.63.63,0,0,0-1.25,0Z"/><path class="cls-5" d="M127.65,384.61v18.92a.63.63,0,0,0,1.25,0V384.61a.63.63,0,0,0-1.25,0Z"/><path class="cls-5" d="M130.89,387.79v21.64a.63.63,0,0,0,1.25,0V387.79a.63.63,0,0,0-1.25,0Z"/><path id="M" class="cls-1" d="M51.93,321.38c5.58,5.09,16.87,16.64,27.43,35a2.85,2.85,0,0,0,4.79.23l12.93-18.29a5.56,5.56,0,0,0,1-2.83L100,311.68c0-2.68,2-16.34,2-16.34a3.8,3.8,0,0,1,7.12-.61l43.06,97.08a3.9,3.9,0,0,0,6.65.7l11.79-15.65a8.9,8.9,0,0,0,.85-9.28l-26.1-45.38-.64-1.35s-35.51-94.57-35.63-95l-7.39-28.05a1.58,1.58,0,0,0-2.56-.79L87.13,207.54a13.68,13.68,0,0,0-4.46,12.67L90,261.76a12.48,12.48,0,0,1,.13,3.34l-2.39,25.32-3.12,16.63a1.34,1.34,0,0,1-.33.66h0a3.27,3.27,0,0,1-4.89-.1l-49.9-58.43a5.09,5.09,0,0,0-7.87.09l-1,1.25a28.71,28.71,0,0,1-4.46,3.19c-4.87,2.29-6.43,5.47-7.58,10.84v3a9.66,9.66,0,0,0,1.85,5.68l5.2,7.12c1.68,2.29,7.88,10.3,8,13.15l1.7,67.39a3.05,3.05,0,0,0,5.11,2.18l13-11.82a6.82,6.82,0,0,0,2.17-4.33l2.4-24A2.41,2.41,0,0,1,51.93,321.38Z"/><path class="cls-5" d="M78.92,357.67v26.77a1.25,1.25,0,0,0,2.5,0V357.67a1.25,1.25,0,0,0-2.5,0Z"/><path class="cls-5" d="M152.15,393.45v18.92a1.25,1.25,0,0,0,2.5,0V393.45a1.25,1.25,0,0,0-2.5,0Z"/><path class="cls-5" d="M173,374.53v18.92a.63.63,0,0,0,1.25,0V374.53a.63.63,0,0,0-1.25,0Z"/><path class="cls-5" d="M85.06,357.67v45.15a.63.63,0,0,0,1.25,0V357.67a.63.63,0,0,0-1.25,0Z"/><path class="cls-5" d="M6.14,269.91v22.57a.63.63,0,0,0,1.25,0V269.91a.63.63,0,0,0-1.25,0Z"/></svg>