<svg width="18" height="14" viewBox="0 0 18 14" fill="none" xmlns="http://www.w3.org/2000/svg">
<path fill-rule="evenodd" clip-rule="evenodd" d="M8.30111 13.9893H8.11934C7.60745 13.9978 7.11013 13.8188 6.72111 13.4859L3.22553 10.5147C2.93209 10.2637 2.89766 9.82239 3.14863 9.52894C3.3996 9.2355 3.84094 9.20107 4.13438 9.45204L7.62996 12.4303C7.7566 12.5386 7.91775 12.5981 8.08438 12.5981H8.30111C8.68722 12.5981 9.00023 12.2851 9.00023 11.8989V2.11133C9.00023 1.72522 8.68722 1.41221 8.30111 1.41221H8.18925C7.99999 1.41111 7.81837 1.48678 7.68589 1.62195L4.26721 5.11752L4.16934 5.20142C3.81445 5.45528 3.38922 5.59214 2.95288 5.59292H2.70819C2.32208 5.59292 2.00907 5.90593 2.00907 6.29204V9.78762C2.00907 10.1737 1.69607 10.4867 1.30996 10.4867C0.923844 10.4867 0.61084 10.1737 0.61084 9.78762V6.29204C0.61084 5.13371 1.54985 4.19469 2.70819 4.19469H2.95987C3.08772 4.19592 3.21346 4.16207 3.32341 4.09682L6.69314 0.636195C7.08772 0.229876 7.62986 0.000412648 8.19624 0H8.30111C9.45944 0 10.3985 0.939014 10.3985 2.09735V11.885C10.4003 12.4424 10.1802 12.9777 9.78663 13.3725C9.3931 13.7674 8.85857 13.9893 8.30111 13.9893ZM12.8453 9.70371C13.8117 9.14719 14.4073 8.11687 14.4073 7.00163C14.4073 5.88639 13.8117 4.85607 12.8453 4.29955C12.6285 4.16178 12.3537 4.15392 12.1295 4.27906C11.9053 4.40421 11.7677 4.64223 11.7711 4.899C11.7746 5.15578 11.9186 5.38998 12.1461 5.50902C12.6814 5.81538 13.0116 6.3849 13.0116 7.00163C13.0116 7.61836 12.6814 8.18787 12.1461 8.49424C11.8691 8.6512 11.7332 8.9755 11.8154 9.28307C11.8977 9.59065 12.1773 9.80381 12.4957 9.80159C12.6188 9.80031 12.7394 9.76654 12.8453 9.70371ZM15.0336 11.9409C16.5238 10.7357 17.3897 8.92172 17.3897 7.00515C17.3897 5.08858 16.5238 3.27461 15.0336 2.06939C14.7331 1.84905 14.3127 1.90304 14.0776 2.19216C13.8426 2.48128 13.8756 2.90391 14.1527 3.15302C15.3121 4.09285 15.9856 5.50566 15.9856 6.99816C15.9856 8.49065 15.3121 9.90347 14.1527 10.8433C13.8756 11.0924 13.8426 11.515 14.0776 11.8042C14.3127 12.0933 14.7331 12.1473 15.0336 11.9269V11.9409Z" fill="white"/>
</svg>
