<svg viewBox="0 0 7 9" fill="none" xmlns="http://www.w3.org/2000/svg">
    <path fill-rule="evenodd" clip-rule="evenodd" d="M1.26323 8C1.11785 8 1 7.86091 1 7.68933V1.93261C0.999819 1.59953 1.15026 1.29165 1.39463 1.12502C1.63899 0.958382 1.94013 0.958325 2.18454 1.12487L5.60655 3.46421C5.8501 3.63095 6 3.93811 6 4.2704C6 4.6027 5.8501 4.90986 5.60655 5.07659L2.44777 7.25128C2.36617 7.3125 2.26271 7.316 2.17827 7.26039C2.09384 7.20477 2.04204 7.09901 2.04335 6.9849C2.04466 6.87079 2.09887 6.76672 2.18454 6.71382L5.34332 4.53913C5.4245 4.48355 5.47447 4.38117 5.47447 4.2704C5.47447 4.15964 5.4245 4.05725 5.34332 4.00167L1.92131 1.66233C1.8397 1.60672 1.73914 1.60684 1.65762 1.66263C1.57611 1.71843 1.52609 1.8214 1.52646 1.93261V7.68933C1.52646 7.86091 1.40861 8 1.26323 8Z" fill="#F72585" stroke="#F72585" stroke-width="0.3"/>
</svg>
