<svg width="23" height="20" viewBox="0 0 23 20" fill="none" xmlns="http://www.w3.org/2000/svg">
<path fill-rule="evenodd" clip-rule="evenodd" d="M19.877 19.6033H3.47574C1.96604 19.6033 0.742188 18.3496 0.742188 16.803V7.46897C0.742188 5.92245 1.96604 4.66875 3.47574 4.66875H4.12268L11.1935 0.141723C11.6212 -0.131496 12.1842 0.00223234 12.4509 0.440413C12.7176 0.878594 12.5871 1.4553 12.1593 1.72852L5.08853 6.25554C4.79852 6.43966 4.46387 6.53668 4.12268 6.53556H3.47574C2.97251 6.53556 2.56455 6.95346 2.56455 7.46897V16.803C2.56455 17.3185 2.97251 17.7365 3.47574 17.7365H19.877C20.3803 17.7365 20.7882 17.3185 20.7882 16.803V7.46897C20.7882 6.95346 20.3803 6.53556 19.877 6.53556H9.85402C9.35079 6.53556 8.94284 6.11766 8.94284 5.60216C8.94284 5.08665 9.35079 4.66875 9.85402 4.66875H19.877C21.3867 4.66875 22.6106 5.92245 22.6106 7.46897V16.803C22.6106 17.5457 22.3226 18.258 21.81 18.7831C21.2973 19.3082 20.602 19.6033 19.877 19.6033ZM18.9661 12.136C18.9661 10.5895 17.7423 9.33578 16.2326 9.33578C14.7229 9.33578 13.499 10.5895 13.499 12.136C13.499 12.6515 13.907 13.0694 14.4102 13.0694C14.9134 13.0694 15.3214 12.6515 15.3214 12.136C15.3214 11.6205 15.7293 11.2026 16.2326 11.2026C16.7358 11.2026 17.1438 11.6205 17.1438 12.136C17.1438 12.6515 16.7358 13.0694 16.2326 13.0694C15.7293 13.0694 15.3214 13.4873 15.3214 14.0028C15.3214 14.5183 15.7293 14.9362 16.2326 14.9362C17.7423 14.9362 18.9661 13.6825 18.9661 12.136ZM10.7655 10.2692C10.7655 9.75369 10.3575 9.33578 9.85431 9.33578H5.29839C4.79516 9.33578 4.38721 9.75369 4.38721 10.2692C4.38721 10.7847 4.79516 11.2026 5.29839 11.2026H9.85431C10.3575 11.2026 10.7655 10.7847 10.7655 10.2692ZM10.7655 14.0028C10.7655 13.4873 10.3575 13.0694 9.85431 13.0694H5.29839C4.79516 13.0694 4.38721 13.4873 4.38721 14.0028C4.38721 14.5183 4.79516 14.9362 5.29839 14.9362H9.85431C10.3575 14.9362 10.7655 14.5183 10.7655 14.0028Z" fill="#F2EBEF" fill-opacity="0.5"/>
</svg>
