<svg width="17" height="13" viewBox="0 0 17 13" fill="none" xmlns="http://www.w3.org/2000/svg">
<path opacity="0.5" fill-rule="evenodd" clip-rule="evenodd" d="M8.17611 9.69508C7.79365 9.69508 7.4836 9.38503 7.4836 9.00257V3.62873L6.36174 1.38501H1.68041L2.37291 2.77002H5.40609C5.78855 2.77002 6.09859 3.08007 6.09859 3.46253C6.09859 3.84499 5.78855 4.15503 5.40609 4.15503H2.07513C1.73415 4.15576 1.42249 3.96232 1.27183 3.65643L0.0945689 1.30191C-0.0443627 1.02323 -0.0294095 0.692532 0.134107 0.427522C0.297623 0.162513 0.58648 0.000824216 0.897875 0H6.36867C6.89424 0.000278889 7.37437 0.298014 7.60825 0.768681L8.87554 3.30325V9.0095C8.87371 9.19316 8.79899 9.36858 8.66782 9.49715C8.53665 9.62573 8.35977 9.69692 8.17611 9.69508ZM15.1013 10.3876V6.23256C15.1013 5.8501 14.7913 5.54005 14.4088 5.54005C14.0263 5.54005 13.7163 5.8501 13.7163 6.23256V10.3876C13.7163 10.77 13.4063 11.0801 13.0238 11.0801H3.32872C2.94626 11.0801 2.63622 10.77 2.63622 10.3876V6.23256C2.63622 5.8501 2.32617 5.54005 1.94371 5.54005C1.56125 5.54005 1.25121 5.8501 1.25121 6.23256V10.3876C1.25121 11.535 2.18134 12.4651 3.32872 12.4651H13.0238C13.5748 12.4651 14.1032 12.2462 14.4928 11.8566C14.8824 11.467 15.1013 10.9386 15.1013 10.3876ZM15.1014 3.65643L16.2787 1.30191C16.4176 1.02323 16.4026 0.692532 16.2391 0.427522C16.0756 0.162513 15.7868 0.000824216 15.4754 0H9.56137C9.17891 0 8.86886 0.310045 8.86886 0.692505C8.86886 1.07497 9.17891 1.38501 9.56137 1.38501H14.6721L13.9796 2.77002H10.9464C10.5639 2.77002 10.2539 3.08007 10.2539 3.46253C10.2539 3.84499 10.5639 4.15503 10.9464 4.15503H14.2773C14.6203 4.15676 14.9345 3.96342 15.0876 3.65643H15.1014Z" fill="#F2EBEF"/>
</svg>
