<svg width="16" height="12" viewBox="0 0 16 12" fill="none" xmlns="http://www.w3.org/2000/svg">
<path fill-rule="evenodd" clip-rule="evenodd" d="M14 12H2C0.895431 12 0 11.1046 0 10V3.33333C0 2.96514 0.298477 2.66667 0.666667 2.66667C1.03486 2.66667 1.33333 2.96514 1.33333 3.33333V10C1.33333 10.3682 1.63181 10.6667 2 10.6667H14C14.3682 10.6667 14.6667 10.3682 14.6667 10V2C14.6667 1.63181 14.3682 1.33333 14 1.33333H7.33333C6.96514 1.33333 6.66667 1.03486 6.66667 0.666667C6.66667 0.298477 6.96514 0 7.33333 0H14C15.1046 0 16 0.895431 16 2V10C16 11.1046 15.1046 12 14 12ZM0.666667 0C0.298477 0 0 0.298477 0 0.666667C0 1.03486 0.298477 1.33333 0.666667 1.33333C1.03486 1.33333 1.33333 1.03486 1.33333 0.666667C1.33333 0.298477 1.03486 0 0.666667 0ZM2.6669 0C2.29871 0 2.00024 0.298477 2.00024 0.666667C2.00024 1.03486 2.29871 1.33333 2.6669 1.33333C3.03509 1.33333 3.33357 1.03486 3.33357 0.666667C3.33357 0.298477 3.03509 0 2.6669 0ZM4.66697 0C4.29878 0 4.00031 0.298477 4.00031 0.666667C4.00031 1.03486 4.29878 1.33333 4.66697 1.33333C5.03516 1.33333 5.33364 1.03486 5.33364 0.666667C5.33364 0.298477 5.03516 0 4.66697 0ZM9.53332 5.64632L10.0067 5.17299C10.2332 4.90848 10.2179 4.51419 9.9717 4.26795C9.72545 4.0217 9.33116 4.00647 9.06666 4.23299L8.59332 4.70632C8.40307 4.86925 8.3202 5.12507 8.37878 5.3686C8.43737 5.61214 8.62751 5.80228 8.87105 5.86086C9.11458 5.91945 9.3704 5.83658 9.53332 5.64632ZM7.17343 8.00633L7.64676 7.53299C7.87328 7.26849 7.85805 6.8742 7.61181 6.62795C7.36556 6.38171 6.97127 6.36648 6.70676 6.59299L6.23343 7.06633C6.04318 7.22925 5.96031 7.48507 6.01889 7.72861C6.07747 7.97214 6.26762 8.16229 6.51115 8.22087C6.75468 8.27945 7.0105 8.19658 7.17343 8.00633ZM7.64676 5.64631C7.90525 5.38629 7.90525 4.96634 7.64676 4.70631L7.17343 4.23298C7.0105 4.04273 6.75468 3.95986 6.51115 4.01844C6.26762 4.07702 6.07747 4.26717 6.01889 4.5107C5.96031 4.75423 6.04318 5.01005 6.23343 5.17298L6.70676 5.64631C6.96679 5.90479 7.38674 5.90479 7.64676 5.64631ZM10.0067 8.00631C10.2651 7.74629 10.2651 7.32634 10.0067 7.06631L9.53332 6.59298C9.3704 6.40273 9.11458 6.31986 8.87105 6.37844C8.62751 6.43702 8.43737 6.62717 8.37878 6.8707C8.3202 7.11423 8.40307 7.37005 8.59332 7.53298L9.06666 8.00631C9.32668 8.2648 9.74663 8.2648 10.0067 8.00631Z" fill="white"/>
</svg>
